<?xml version="1.0" standalone="no"?>
<!DOCTYPE svg PUBLIC "-//W3C//DTD SVG 20010904//EN"
 "http://www.w3.org/TR/2001/REC-SVG-20010904/DTD/svg10.dtd">
<svg version="1.0" xmlns="http://www.w3.org/2000/svg"
 width="1890.000000pt" height="1417.000000pt" viewBox="0 0 1890.000000 1417.000000"
 preserveAspectRatio="xMidYMid meet">

<g transform="translate(0.000000,1417.000000) scale(0.100000,-0.100000)"
fill="#000000" stroke="none">
<path d="M1643 8101 c-239 -65 -416 -251 -490 -517 -28 -98 -28 -101 -28 -404
1 -284 3 -311 23 -385 97 -348 346 -546 687 -547 215 -1 373 59 505 192 112
111 166 230 172 377 4 91 1 93 -153 93 -151 0 -153 -2 -162 -108 -10 -120 -73
-208 -187 -261 -48 -22 -68 -26 -165 -26 -93 0 -118 4 -158 22 -66 31 -149
119 -187 198 -51 107 -60 171 -60 450 0 284 9 343 63 452 86 171 230 245 416
214 159 -26 266 -136 278 -286 9 -103 12 -105 162 -105 155 0 157 2 153 99
-11 258 -183 465 -447 537 -39 11 -112 18 -205 20 -120 3 -157 1 -217 -15z
m405 -42 c176 -44 318 -157 383 -303 21 -48 48 -175 49 -228 l0 -28 -119 0
-118 0 -6 66 c-14 176 -141 300 -332 324 -201 26 -351 -58 -439 -243 -57 -121
-61 -152 -61 -467 0 -245 3 -294 18 -349 43 -150 138 -276 245 -324 103 -47
254 -45 367 3 109 47 192 169 203 297 l5 63 120 0 119 0 -7 -66 c-19 -178 -96
-308 -243 -408 -166 -114 -426 -145 -628 -76 -198 68 -348 240 -416 475 -22
76 -23 96 -23 380 0 349 7 398 83 548 37 75 61 108 131 177 112 111 208 159
361 180 77 11 221 1 308 -21z"/>
<path d="M528 8089 c-17 -9 -18 -63 -18 -902 0 -681 3 -896 12 -905 8 -8 55
-12 144 -12 126 0 134 1 148 22 14 20 16 121 16 895 0 860 0 873 -20 893 -18
18 -33 20 -142 20 -68 0 -131 -5 -140 -11z m262 -904 l0 -875 -120 0 -120 0 0
875 0 875 120 0 120 0 0 -875z"/>
<path d="M2750 8080 c-20 -20 -20 -33 -20 -893 0 -774 2 -875 16 -895 l15 -22
553 0 c416 0 555 3 564 12 8 8 12 49 12 119 0 100 -2 109 -22 123 -19 14 -76
16 -420 16 l-398 0 0 270 0 270 344 0 c300 0 347 2 360 16 12 12 16 38 16 115
0 150 31 139 -380 139 l-340 0 0 240 0 240 395 0 c474 0 435 -13 435 139 0 77
-4 103 -16 115 -14 14 -78 16 -555 16 -526 0 -539 0 -559 -20z m1090 -115 l0
-95 -415 0 -415 0 0 -280 0 -280 360 0 360 0 0 -95 0 -95 -360 0 -360 0 0
-310 0 -310 420 0 420 0 0 -95 0 -95 -540 0 -540 0 0 875 0 875 535 0 535 0 0
-95z"/>
<path d="M4109 8053 c0 -5 93 -398 208 -875 l208 -868 108 0 c59 0 107 2 107
3 0 2 79 273 175 603 97 329 181 634 187 677 7 42 15 77 18 77 4 0 12 -33 18
-72 9 -57 213 -785 343 -1221 l20 -68 106 3 106 3 208 860 c115 473 209 866
209 873 0 10 -29 12 -127 10 l-127 -3 -123 -560 c-67 -308 -130 -615 -140
-683 -9 -67 -20 -119 -23 -115 -4 5 -14 53 -23 108 -10 55 -88 360 -175 677
l-157 578 -116 0 -116 0 -156 -577 c-86 -318 -164 -623 -174 -678 -9 -55 -19
-103 -23 -108 -3 -4 -12 41 -19 100 -10 83 -240 1155 -267 1246 -5 15 -20 17
-130 17 -68 0 -124 -3 -125 -7z"/>
<path d="M6797 8018 c-8 -24 -144 -401 -302 -838 -158 -437 -293 -812 -301
-832 l-13 -38 122 0 122 0 76 223 76 222 331 3 330 2 38 -112 c20 -62 55 -164
76 -225 l40 -113 120 0 c92 0 119 3 116 13 -3 6 -141 400 -309 875 l-304 862
-101 0 -102 0 -15 -42z m249 -695 l124 -363 -260 0 c-143 0 -260 1 -260 3 0 3
248 717 256 737 6 13 7 13 12 0 3 -8 61 -178 128 -377z"/>
<path d="M7572 7968 l3 -93 283 -3 282 -2 0 -780 0 -780 120 0 120 0 0 780 0
780 290 0 290 0 0 95 0 95 -695 0 -696 0 3 -92z"/>
<path d="M9200 7185 l0 -875 540 0 540 0 0 95 0 95 -420 0 -420 0 0 310 0 310
360 0 360 0 0 95 0 95 -360 0 -360 0 0 280 0 280 415 0 415 0 0 95 0 95 -535
0 -535 0 0 -875z"/>
<path d="M10550 7186 l0 -876 120 0 120 0 0 381 0 381 243 -4 c228 -3 245 -4
292 -26 66 -30 118 -83 146 -146 20 -45 24 -75 30 -256 5 -149 12 -217 23
-250 29 -78 33 -80 173 -80 98 0 123 3 123 14 0 7 -6 19 -14 25 -8 6 -24 35
-37 64 -20 46 -23 75 -30 252 -8 227 -24 299 -83 377 -34 44 -109 99 -153 113
-33 9 -28 20 19 41 62 28 150 118 183 189 21 46 29 79 33 147 9 159 -32 284
-122 373 -63 62 -131 99 -233 127 -72 20 -107 22 -455 26 l-378 4 0 -876z
m802 646 c112 -55 153 -139 146 -297 -11 -230 -131 -291 -553 -283 l-150 3 -3
308 -2 309 248 -4 248 -3 66 -33z"/>
</g>
</svg>
